<?xml version="1.0" standalone="no"?>
<!DOCTYPE svg PUBLIC "-//W3C//DTD SVG 20010904//EN"
 "http://www.w3.org/TR/2001/REC-SVG-20010904/DTD/svg10.dtd">
<svg version="1.0" xmlns="http://www.w3.org/2000/svg"
 width="500.000000pt" height="500.000000pt" viewBox="0 0 500.000000 500.000000"
 preserveAspectRatio="xMidYMid meet">

<g transform="translate(0.000000,500.000000) scale(0.100000,-0.100000)"
fill="#000000" stroke="none">
<path d="M2508 3533 c17 -2 47 -2 65 0 17 2 3 4 -33 4 -36 0 -50 -2 -32 -4z"/>
<path d="M2129 3506 c-195 -80 -370 -250 -469 -457 -67 -141 -83 -218 -84
-411 -1 -99 2 -164 8 -161 5 4 6 -10 3 -33 -4 -24 -3 -31 2 -19 7 17 9 14 15
-18 4 -20 4 -42 0 -49 -4 -7 -3 -8 4 -4 15 9 15 5 2 -29 -7 -19 -7 -24 2 -19
8 5 9 0 6 -14 -4 -12 -2 -20 3 -16 5 3 9 -4 9 -16 0 -18 12 -46 33 -74 4 -6
23 -36 43 -66 39 -59 182 -210 199 -210 5 0 -6 14 -25 30 -19 16 -31 30 -26
30 17 0 65 -52 60 -65 -6 -14 23 -28 38 -18 6 3 8 1 5 -4 -9 -14 19 -37 34
-27 7 4 9 3 6 -3 -3 -5 12 -20 35 -33 23 -13 38 -18 34 -11 -6 8 -1 8 18 0 14
-7 23 -15 21 -19 -2 -4 7 -12 21 -19 35 -16 44 -13 14 5 -27 17 -29 17 83 -22
185 -63 425 -57 617 18 183 71 345 212 459 401 35 58 18 44 -24 -20 -21 -32
-70 -91 -109 -132 -128 -132 -261 -211 -408 -241 -48 -10 -91 -21 -97 -24 -5
-4 -12 -2 -15 2 -3 5 33 19 79 31 93 25 245 94 245 111 0 6 4 9 8 6 13 -8 139
106 187 169 44 60 111 175 101 175 -3 0 -14 -17 -25 -38 -10 -20 -41 -64 -67
-97 -273 -340 -741 -424 -1117 -201 -88 53 -207 162 -259 239 -118 174 -186
426 -160 592 12 69 41 180 47 173 1 -2 -6 -43 -17 -93 -24 -111 -19 -261 11
-379 39 -149 148 -320 264 -415 57 -47 157 -108 157 -97 0 3 -15 13 -32 22
-58 29 -159 116 -215 183 -61 74 -135 216 -159 306 -9 33 -19 114 -21 180 -5
104 -2 130 16 193 42 140 108 264 200 372 25 30 45 58 43 63 -1 5 2 5 8 2 14
-9 52 24 43 38 -3 6 -1 7 5 3 6 -3 16 2 21 13 23 42 232 135 351 157 239 43
501 -23 690 -174 112 -89 198 -200 259 -335 21 -45 43 -93 49 -107 11 -24 11
-24 6 5 -30 154 -156 345 -302 456 -84 64 -223 132 -327 160 -115 32 -335 32
-450 0 -198 -54 -404 -200 -512 -363 -14 -21 -28 -36 -31 -34 -8 8 73 115 135
179 138 141 339 241 548 270 17 3 3 3 -30 1 -72 -3 -205 -44 -295 -89 -329
-166 -518 -514 -480 -885 6 -58 13 -118 15 -135 4 -21 0 -16 -11 15 -13 35
-17 82 -18 215 -1 201 8 242 90 412 92 187 218 314 422 421 101 54 107 68 11
28z m-366 -1425 c31 -41 63 -79 72 -83 8 -5 15 -14 15 -20 0 -17 -46 29 -97
97 -45 60 -114 187 -127 235 -4 14 13 -15 37 -65 24 -49 69 -123 100 -164z
m462 -286 c86 -29 192 -45 308 -47 100 -1 105 -2 47 -8 -81 -8 -223 4 -304 26
-59 16 -246 98 -246 108 0 2 33 -10 73 -29 39 -18 95 -40 122 -50z m-184 38
c13 -17 13 -17 -6 -3 -11 8 -22 16 -24 17 -2 2 0 3 6 3 6 0 17 -8 24 -17z"/>
<path d="M2628 3523 c12 -2 30 -2 40 0 9 3 -1 5 -23 4 -22 0 -30 -2 -17 -4z"/>
<path d="M2703 3513 c9 -2 23 -2 30 0 6 3 -1 5 -18 5 -16 0 -22 -2 -12 -5z"/>
<path d="M2970 3426 c0 -2 7 -7 16 -10 8 -3 12 -2 9 4 -6 10 -25 14 -25 6z"/>
<path d="M1829 3373 l-24 -28 28 24 c25 23 32 31 24 31 -2 0 -14 -12 -28 -27z"/>
<path d="M2380 3328 c-28 -47 -25 -84 12 -155 l33 -61 -18 -38 c-23 -47 -8
-66 22 -28 30 38 27 84 -10 149 -24 42 -29 62 -24 85 4 16 11 32 16 35 12 8
12 45 -1 45 -6 0 -19 -15 -30 -32z"/>
<path d="M3177 3286 c34 -31 85 -87 114 -124 59 -76 76 -95 64 -72 -31 56
-136 173 -200 222 -22 17 -12 5 22 -26z"/>
<path d="M1764 3308 l-19 -23 23 19 c21 18 27 26 19 26 -2 0 -12 -10 -23 -22z"/>
<path d="M2174 3155 c-32 -48 -30 -97 7 -164 33 -60 33 -60 16 -96 -20 -43
-21 -55 -4 -55 18 0 47 53 47 85 0 15 -15 54 -32 86 -30 55 -32 61 -19 91 20
50 25 78 12 78 -6 0 -18 -11 -27 -25z"/>
<path d="M2621 3149 c-30 -48 -26 -95 11 -164 31 -57 31 -59 15 -88 -34 -57
-11 -81 23 -24 27 44 25 73 -10 132 -34 57 -37 83 -14 127 24 46 1 61 -25 17z"/>
<path d="M3394 3003 c18 -38 42 -94 52 -125 9 -32 19 -56 22 -54 11 12 -87
246 -103 246 -3 0 10 -30 29 -67z"/>
<path d="M1541 2824 c0 -11 3 -14 6 -6 3 7 2 16 -1 19 -3 4 -6 -2 -5 -13z"/>
<path d="M3471 2794 c0 -11 3 -14 6 -6 3 7 2 16 -1 19 -3 4 -6 -2 -5 -13z"/>
<path d="M2030 2597 c0 -205 8 -250 60 -326 18 -25 53 -62 78 -81 l46 -35
-123 -3 c-103 -2 -122 -5 -119 -18 3 -13 64 -15 497 -14 272 0 497 2 499 5 2
2 1 8 -3 14 -4 7 -62 11 -158 12 -146 0 -151 1 -127 17 61 42 92 79 127 150
l38 76 0 190 0 191 -407 3 -408 2 0 -183z m778 -34 c-3 -173 -5 -191 -26 -231
-35 -66 -88 -119 -150 -149 -54 -27 -64 -28 -197 -28 -128 0 -144 2 -189 24
-64 32 -123 92 -155 161 -24 52 -26 66 -29 233 l-4 177 377 0 377 0 -4 -187z"/>
<path d="M2710 2555 c0 -87 3 -105 15 -105 12 0 15 18 15 105 0 87 -3 105 -15
105 -12 0 -15 -18 -15 -105z"/>
<path d="M1532 2750 c0 -14 2 -19 5 -12 2 6 2 18 0 25 -3 6 -5 1 -5 -13z"/>
<path d="M3482 2740 c0 -14 2 -19 5 -12 2 6 2 18 0 25 -3 6 -5 1 -5 -13z"/>
<path d="M2908 2728 c-16 -5 -28 -16 -28 -24 0 -17 4 -17 51 -4 48 14 109 -6
126 -40 18 -36 15 -109 -6 -156 -22 -49 -69 -70 -132 -60 -34 6 -39 4 -39 -14
0 -18 7 -20 55 -20 74 0 120 24 145 75 25 51 27 152 4 196 -26 51 -108 73
-176 47z"/>
<path d="M1693 2640 c0 -25 2 -35 4 -22 2 12 2 32 0 45 -2 12 -4 2 -4 -23z"/>
<path d="M1541 2654 c0 -11 3 -14 6 -6 3 7 2 16 -1 19 -3 4 -6 -2 -5 -13z"/>
<path d="M1532 2580 c0 -14 2 -19 5 -12 2 6 2 18 0 25 -3 6 -5 1 -5 -13z"/>
<path d="M3030 2136 c0 -12 11 -16 46 -16 59 0 55 24 -4 28 -33 2 -42 0 -42
-12z"/>
<path d="M2130 1915 c14 -8 30 -14 35 -14 6 0 -1 6 -15 14 -14 8 -29 14 -35
14 -5 0 1 -6 15 -14z"/>
<path d="M2248 1873 c7 -3 16 -2 19 1 4 3 -2 6 -13 5 -11 0 -14 -3 -6 -6z"/>
<path d="M2288 1863 c7 -3 16 -2 19 1 4 3 -2 6 -13 5 -11 0 -14 -3 -6 -6z"/>
<path d="M2358 1853 c7 -3 16 -2 19 1 4 3 -2 6 -13 5 -11 0 -14 -3 -6 -6z"/>
<path d="M2180 1750 c8 -5 22 -9 30 -9 10 0 8 3 -5 9 -27 12 -43 12 -25 0z"/>
<path d="M2298 1713 c6 -2 18 -2 25 0 6 3 1 5 -13 5 -14 0 -19 -2 -12 -5z"/>
<path d="M2353 1703 c9 -2 23 -2 30 0 6 3 -1 5 -18 5 -16 0 -22 -2 -12 -5z"/>
<path d="M2683 1703 c9 -2 23 -2 30 0 6 3 -1 5 -18 5 -16 0 -22 -2 -12 -5z"/>
<path d="M2468 1693 c34 -2 90 -2 125 0 34 2 6 3 -63 3 -69 0 -97 -1 -62 -3z"/>
</g>
</svg>
